<svg width="126" height="52" viewBox="0 0 126 52" fill="none" xmlns="http://www.w3.org/2000/svg">
<path fill-rule="evenodd" clip-rule="evenodd" d="M26 0C22.9624 0 20.5 2.46243 20.5 5.5V12.7217L15.3935 7.61514C13.2456 5.46726 9.76317 5.46726 7.61529 7.61514C5.4674 9.76302 5.4674 13.2454 7.61529 15.3933L12.722 20.5H5.5C2.46243 20.5 0 22.9624 0 26C0 29.0376 2.46243 31.5 5.5 31.5H12.722L7.61531 36.6067C5.46742 38.7545 5.46742 42.237 7.61531 44.3848C9.76319 46.5327 13.2456 46.5327 15.3935 44.3848L20.5 39.2783V46.5C20.5 49.5376 22.9624 52 26 52C29.0376 52 31.5 49.5376 31.5 46.5V39.278L36.6067 44.3847C38.7545 46.5326 42.237 46.5326 44.3848 44.3847C46.5327 42.2368 46.5327 38.7544 44.3848 36.6065L39.2783 31.5H46.5C49.5376 31.5 52 29.0376 52 26C52 22.9624 49.5376 20.5 46.5 20.5H39.2783L44.3849 15.3935C46.5327 13.2456 46.5327 9.76317 44.3849 7.61528C42.237 5.4674 38.7546 5.4674 36.6067 7.61528L31.5 12.722V5.5C31.5 2.46243 29.0376 0 26 0ZM26 33C29.866 33 33 29.866 33 26C33 22.134 29.866 19 26 19C22.134 19 19 22.134 19 26C19 29.866 22.134 33 26 33Z" fill="#2865FF"/>
<path d="M59.5645 17H64.2578L69.2148 29.0937H69.4258L74.3828 17H79.0762V35H75.3848V23.2842H75.2354L70.5771 34.9121H68.0635L63.4053 23.2402H63.2559V35H59.5645V17ZM82.1414 40.0625V21.5H85.8328V23.7676H85.9998C86.1638 23.4043 86.4011 23.0352 86.7117 22.6602C87.0281 22.2793 87.4382 21.9629 87.9421 21.7109C88.4519 21.4531 89.0847 21.3242 89.8406 21.3242C90.825 21.3242 91.7332 21.582 92.5652 22.0977C93.3972 22.6074 94.0623 23.3779 94.5603 24.4092C95.0583 25.4346 95.3074 26.7207 95.3074 28.2676C95.3074 29.7734 95.0642 31.0449 94.5779 32.082C94.0974 33.1133 93.4412 33.8955 92.6091 34.4287C91.783 34.9561 90.8572 35.2197 89.8318 35.2197C89.1052 35.2197 88.4871 35.0996 87.9773 34.8594C87.4734 34.6191 87.0603 34.3174 86.738 33.9541C86.4158 33.585 86.1697 33.2129 85.9998 32.8379H85.8855V40.0625H82.1414ZM85.8064 28.25C85.8064 29.0527 85.9177 29.7529 86.1404 30.3506C86.363 30.9482 86.6853 31.4141 87.1072 31.748C87.5291 32.0762 88.0417 32.2402 88.6453 32.2402C89.2546 32.2402 89.7703 32.0732 90.1921 31.7393C90.614 31.3994 90.9333 30.9307 91.1501 30.333C91.3728 29.7295 91.4841 29.0352 91.4841 28.25C91.4841 27.4707 91.3757 26.7852 91.1589 26.1934C90.9421 25.6016 90.6228 25.1387 90.2009 24.8047C89.7791 24.4707 89.2605 24.3037 88.6453 24.3037C88.0359 24.3037 87.5203 24.4648 87.0984 24.7871C86.6824 25.1094 86.363 25.5664 86.1404 26.1582C85.9177 26.75 85.8064 27.4473 85.8064 28.25ZM103.903 35.2637C102.538 35.2637 101.357 34.9736 100.361 34.3936C99.3708 33.8076 98.6062 32.9932 98.0671 31.9502C97.5281 30.9014 97.2585 29.6855 97.2585 28.3027C97.2585 26.9082 97.5281 25.6895 98.0671 24.6465C98.6062 23.5977 99.3708 22.7832 100.361 22.2031C101.357 21.6172 102.538 21.3242 103.903 21.3242C105.268 21.3242 106.446 21.6172 107.436 22.2031C108.432 22.7832 109.2 23.5977 109.739 24.6465C110.278 25.6895 110.548 26.9082 110.548 28.3027C110.548 29.6855 110.278 30.9014 109.739 31.9502C109.2 32.9932 108.432 33.8076 107.436 34.3936C106.446 34.9736 105.268 35.2637 103.903 35.2637ZM103.921 32.3633C104.542 32.3633 105.06 32.1875 105.476 31.8359C105.892 31.4785 106.206 30.9922 106.417 30.377C106.634 29.7617 106.742 29.0615 106.742 28.2764C106.742 27.4912 106.634 26.791 106.417 26.1758C106.206 25.5605 105.892 25.0742 105.476 24.7168C105.06 24.3594 104.542 24.1807 103.921 24.1807C103.294 24.1807 102.766 24.3594 102.339 24.7168C101.917 25.0742 101.597 25.5605 101.381 26.1758C101.17 26.791 101.064 27.4912 101.064 28.2764C101.064 29.0615 101.17 29.7617 101.381 30.377C101.597 30.9922 101.917 31.4785 102.339 31.8359C102.766 32.1875 103.294 32.3633 103.921 32.3633ZM124.215 25.3496L120.787 25.5605C120.728 25.2676 120.602 25.0039 120.409 24.7695C120.216 24.5293 119.961 24.3389 119.644 24.1982C119.334 24.0518 118.962 23.9785 118.528 23.9785C117.948 23.9785 117.459 24.1016 117.06 24.3477C116.662 24.5879 116.463 24.9102 116.463 25.3145C116.463 25.6367 116.592 25.9092 116.849 26.1318C117.107 26.3545 117.55 26.5332 118.177 26.668L120.62 27.1602C121.932 27.4297 122.911 27.8633 123.555 28.4609C124.2 29.0586 124.522 29.8437 124.522 30.8164C124.522 31.7012 124.261 32.4775 123.74 33.1455C123.224 33.8135 122.515 34.335 121.613 34.71C120.717 35.0791 119.682 35.2637 118.51 35.2637C116.723 35.2637 115.3 34.8916 114.239 34.1475C113.184 33.3975 112.566 32.3779 112.385 31.0889L116.067 30.8955C116.178 31.4404 116.448 31.8564 116.876 32.1436C117.303 32.4248 117.851 32.5654 118.519 32.5654C119.176 32.5654 119.703 32.4395 120.101 32.1875C120.506 31.9297 120.711 31.5986 120.717 31.1943C120.711 30.8545 120.567 30.5762 120.286 30.3594C120.005 30.1367 119.571 29.9668 118.985 29.8496L116.647 29.3838C115.329 29.1201 114.347 28.6631 113.703 28.0127C113.064 27.3623 112.745 26.5332 112.745 25.5254C112.745 24.6582 112.979 23.9111 113.448 23.2842C113.923 22.6572 114.588 22.1738 115.443 21.834C116.304 21.4941 117.312 21.3242 118.467 21.3242C120.172 21.3242 121.513 21.6846 122.492 22.4053C123.476 23.126 124.051 24.1074 124.215 25.3496Z" fill="black"/>
</svg>
