<svg width="30" height="30" viewBox="0 0 30 30" fill="none" xmlns="http://www.w3.org/2000/svg">
<path fill-rule="evenodd" clip-rule="evenodd" d="M15 0C13.2476 0 11.8269 1.42063 11.8269 3.17308V7.33943L8.88084 4.39335C7.64168 3.15419 5.6326 3.15419 4.39343 4.39335C3.15427 5.63251 3.15427 7.64159 4.39343 8.88076L7.3396 11.8269H3.17308C1.42064 11.8269 0 13.2476 0 15C0 16.7524 1.42063 18.1731 3.17308 18.1731H7.3396L4.39345 21.1192C3.15428 22.3584 3.15428 24.3675 4.39345 25.6066C5.63261 26.8458 7.64169 26.8458 8.88085 25.6066L11.8269 22.6606V26.8269C11.8269 28.5794 13.2476 30 15 30C16.7524 30 18.1731 28.5794 18.1731 26.8269V22.6604L21.1192 25.6066C22.3584 26.8457 24.3675 26.8457 25.6066 25.6066C26.8458 24.3674 26.8458 22.3583 25.6066 21.1191L22.6606 18.1731H26.8269C28.5794 18.1731 30 16.7524 30 15C30 13.2476 28.5794 11.8269 26.8269 11.8269H22.6606L25.6066 8.88084C26.8458 7.64168 26.8458 5.6326 25.6066 4.39343C24.3675 3.15427 22.3584 3.15427 21.1192 4.39343L18.1731 7.3396V3.17308C18.1731 1.42063 16.7524 0 15 0ZM15 19.0388C17.2303 19.0388 19.0384 17.2308 19.0384 15.0004C19.0384 12.77 17.2303 10.9619 15 10.9619C12.7696 10.9619 10.9615 12.77 10.9615 15.0004C10.9615 17.2308 12.7696 19.0388 15 19.0388Z" fill="#2865FF"/>
</svg>
