<svg width="24" height="24" viewBox="0 0 24 24" fill="none" xmlns="http://www.w3.org/2000/svg">
<path d="M12 12H12.0095" stroke="#FFFFFF" stroke-width="1.44424" stroke-linecap="round" stroke-linejoin="round"/>
<path d="M16 6V4C16 3.46957 15.7893 2.96086 15.4142 2.58579C15.0391 2.21071 14.5304 2 14 2H10C9.46957 2 8.96086 2.21071 8.58579 2.58579C8.21071 2.96086 8 3.46957 8 4V6" stroke="#FFFFFF" stroke-width="1.44424" stroke-linecap="round" stroke-linejoin="round"/>
<path d="M22.001 13C19.0338 14.959 15.5565 16.0033 12.001 16.0033C8.44543 16.0033 4.96818 14.959 2.00098 13" stroke="#FFFFFF" stroke-width="1.44424" stroke-linecap="round" stroke-linejoin="round"/>
<path d="M20.001 6H4.00098C2.89641 6 2.00098 6.89543 2.00098 8V18C2.00098 19.1046 2.89641 20 4.00098 20H20.001C21.1055 20 22.001 19.1046 22.001 18V8C22.001 6.89543 21.1055 6 20.001 6Z" stroke="#FFFFFF" stroke-width="1.44424" stroke-linecap="round" stroke-linejoin="round"/>
</svg>


