<svg width="24" height="24" viewBox="0 0 24 24" fill="none" xmlns="http://www.w3.org/2000/svg">
<path d="M12 22V13" stroke="#050810" stroke-width="1.5" stroke-linecap="round" stroke-linejoin="round"/>
<path d="M15.1695 2.20999C15.4186 2.07074 15.6992 1.99762 15.9845 1.99762C16.2699 1.99762 16.5505 2.07074 16.7995 2.20999L20.9995 4.56999C21.297 4.7382 21.5444 4.98236 21.7166 5.27752C21.8888 5.57269 21.9795 5.90828 21.9795 6.24999C21.9795 6.59171 21.8888 6.9273 21.7166 7.22246C21.5444 7.51763 21.297 7.76179 20.9995 7.92999L8.81953 14.79C8.56973 14.9325 8.28711 15.0074 7.99953 15.0074C7.71195 15.0074 7.42933 14.9325 7.17953 14.79L2.99953 12.43C2.70208 12.2618 2.45462 12.0176 2.28244 11.7225C2.11026 11.4273 2.01953 11.0917 2.01953 10.75C2.01953 10.4083 2.11026 10.0727 2.28244 9.77752C2.45462 9.48236 2.70208 9.23819 2.99953 9.06999L15.1695 2.20999Z" stroke="#050810" stroke-width="1.5" stroke-linecap="round" stroke-linejoin="round"/>
<path d="M20 13V16.87C20.0004 17.2474 19.8971 17.6178 19.7013 17.9405C19.5056 18.2632 19.2249 18.5259 18.89 18.7L12.89 21.78C12.6151 21.9229 12.3098 21.9975 12 21.9975C11.6902 21.9975 11.3849 21.9229 11.11 21.78L5.11 18.7C4.77508 18.5259 4.49443 18.2632 4.29868 17.9405C4.10293 17.6178 3.99961 17.2474 4 16.87V13" stroke="#050810" stroke-width="1.5" stroke-linecap="round" stroke-linejoin="round"/>
<path d="M20.9995 12.43C21.297 12.2618 21.5444 12.0176 21.7166 11.7225C21.8888 11.4273 21.9795 11.0917 21.9795 10.75C21.9795 10.4083 21.8888 10.0727 21.7166 9.77753C21.5444 9.48236 21.297 9.2382 20.9995 9.07L8.82953 2.2C8.58141 2.05791 8.30046 1.98315 8.01453 1.98315C7.72861 1.98315 7.44765 2.05791 7.19953 2.2L2.99953 4.57C2.70208 4.7382 2.45462 4.98236 2.28244 5.27753C2.11026 5.57269 2.01953 5.90828 2.01953 6.25C2.01953 6.59171 2.11026 6.9273 2.28244 7.22247C2.45462 7.51764 2.70208 7.7618 2.99953 7.93L15.1795 14.79C15.4275 14.9325 15.7085 15.0075 15.9945 15.0075C16.2805 15.0075 16.5615 14.9325 16.8095 14.79L20.9995 12.43Z" stroke="#050810" stroke-width="1.5" stroke-linecap="round" stroke-linejoin="round"/>
</svg>


