<svg width="24" height="24" viewBox="0 0 24 24" fill="none" xmlns="http://www.w3.org/2000/svg">
<path d="M3.84922 8.62059C3.70326 7.96311 3.72567 7.27943 3.91437 6.63293C4.10308 5.98642 4.45196 5.39803 4.92868 4.92231C5.40541 4.44658 5.99453 4.09893 6.64142 3.91158C7.28832 3.72423 7.97205 3.70325 8.62922 3.85059C8.99093 3.28489 9.48922 2.81934 10.0782 2.49687C10.6671 2.1744 11.3278 2.00537 11.9992 2.00537C12.6707 2.00537 13.3313 2.1744 13.9203 2.49687C14.5092 2.81934 15.0075 3.28489 15.3692 3.85059C16.0274 3.70261 16.7123 3.72349 17.3602 3.9113C18.0081 4.0991 18.598 4.44773 19.0751 4.92474C19.5521 5.40175 19.9007 5.99166 20.0885 6.63959C20.2763 7.28752 20.2972 7.97242 20.1492 8.63059C20.7149 8.99229 21.1805 9.49059 21.5029 10.0795C21.8254 10.6685 21.9944 11.3291 21.9944 12.0006C21.9944 12.672 21.8254 13.3327 21.5029 13.9216C21.1805 14.5106 20.7149 15.0089 20.1492 15.3706C20.2966 16.0278 20.2756 16.7115 20.0882 17.3584C19.9009 18.0053 19.5532 18.5944 19.0775 19.0711C18.6018 19.5478 18.0134 19.8967 17.3669 20.0854C16.7204 20.2741 16.0367 20.2965 15.3792 20.1506C15.018 20.7185 14.5193 21.186 13.9293 21.5099C13.3394 21.8338 12.6772 22.0036 12.0042 22.0036C11.3312 22.0036 10.669 21.8338 10.0791 21.5099C9.48914 21.186 8.99045 20.7185 8.62922 20.1506C7.97205 20.2979 7.28832 20.2769 6.64142 20.0896C5.99453 19.9022 5.40541 19.5546 4.92868 19.0789C4.45196 18.6031 4.10308 18.0147 3.91437 17.3682C3.72567 16.7217 3.70326 16.0381 3.84922 15.3806C3.27917 15.0198 2.80963 14.5208 2.48426 13.9298C2.1589 13.3388 1.98828 12.6752 1.98828 12.0006C1.98828 11.326 2.1589 10.6623 2.48426 10.0714C2.80963 9.48041 3.27917 8.98134 3.84922 8.62059Z" stroke="#FFFFFF" stroke-width="1.44424" stroke-linecap="round" stroke-linejoin="round"/>
<path d="M16 7.99951H10C9.46957 7.99951 8.96086 8.21023 8.58579 8.5853C8.21071 8.96037 8 9.46908 8 9.99951C8 10.5299 8.21071 11.0387 8.58579 11.4137C8.96086 11.7888 9.46957 11.9995 10 11.9995H14C14.5304 11.9995 15.0391 12.2102 15.4142 12.5853C15.7893 12.9604 16 13.4691 16 13.9995C16 14.5299 15.7893 15.0387 15.4142 15.4137C15.0391 15.7888 14.5304 15.9995 14 15.9995H8" stroke="#FFFFFF" stroke-width="1.44424" stroke-linecap="round" stroke-linejoin="round"/>
<path d="M12 18V6" stroke="#FFFFFF" stroke-width="1.44424" stroke-linecap="round" stroke-linejoin="round"/>
</svg>


