<svg width="24" height="24" viewBox="0 0 24 24" fill="none" xmlns="http://www.w3.org/2000/svg">
<g clip-path="url(#clip0_40816_1801)">
<path d="M23.3438 10.0881C23.4585 10.8095 23.5166 11.5442 23.5166 12.2766C23.5166 15.8285 22.2605 18.8181 20.0908 20.8538H16.5732V18.2346C17.8339 17.3564 18.6949 16.0154 18.9678 14.5032L19.0215 14.2092H12.4902V10.0881H23.3438Z" fill="#4285F4" stroke="white" stroke-width="0.5"/>
<path d="M12.2401 24.0008C15.4766 24.0008 18.2059 22.9382 20.1945 21.1039L16.3276 18.1055C15.2517 18.8375 13.8627 19.252 12.2445 19.252C9.11388 19.252 6.45946 17.1399 5.50705 14.3003H1.5166V17.3912C3.55371 21.4434 7.7029 24.0008 12.2401 24.0008Z" fill="#34A853"/>
<path d="M5.50277 14.3002C5.00011 12.8099 5.00011 11.196 5.50277 9.70569V6.61475H1.51674C-0.185266 10.0055 -0.185266 14.0004 1.51674 17.3912L5.50277 14.3002Z" fill="#FBBC04"/>
<path d="M12.2401 4.74966C13.9509 4.7232 15.6044 5.36697 16.8434 6.54867L20.2695 3.12262C18.1001 1.0855 15.2208 -0.034466 12.2401 0.000808666C7.7029 0.000808666 3.55371 2.55822 1.5166 6.61481L5.50264 9.70575C6.45064 6.86173 9.10947 4.74966 12.2401 4.74966Z" fill="#EA4335"/>
</g>
<defs>
<clipPath id="clip0_40816_1801">
<rect width="24" height="24" fill="white"/>
</clipPath>
</defs>
</svg>
