<svg width="24" height="24" viewBox="0 0 24 24" fill="none" xmlns="http://www.w3.org/2000/svg">
<path d="M9.76094 14.3667C9.18594 13.7927 8.83594 13.0127 8.83594 12.1377C8.83594 10.3847 10.2479 8.97174 11.9999 8.97174C12.8669 8.97174 13.6649 9.32274 14.2299 9.89674" stroke="#050810" stroke-width="1.5" stroke-linecap="round" stroke-linejoin="round"/>
<path d="M15.1034 12.6987C14.8714 13.9887 13.8554 15.0067 12.5664 15.2407" stroke="#050810" stroke-width="1.5" stroke-linecap="round" stroke-linejoin="round"/>
<path d="M6.655 17.4722C5.068 16.2262 3.724 14.4062 2.75 12.1372C3.734 9.85823 5.087 8.02823 6.684 6.77223C8.271 5.51623 10.102 4.83423 12 4.83423C13.909 4.83423 15.739 5.52623 17.336 6.79123" stroke="#050810" stroke-width="1.5" stroke-linecap="round" stroke-linejoin="round"/>
<path d="M19.4487 8.99072C20.1367 9.90472 20.7417 10.9597 21.2507 12.1367C19.2837 16.6937 15.8077 19.4387 12.0008 19.4387C11.1378 19.4387 10.2868 19.2987 9.46875 19.0257" stroke="#050810" stroke-width="1.5" stroke-linecap="round" stroke-linejoin="round"/>
<path d="M19.8873 4.24951L4.11328 20.0235" stroke="#050810" stroke-width="1.5" stroke-linecap="round" stroke-linejoin="round"/>
</svg>


