<svg width="24" height="24" viewBox="0 0 24 24" fill="none" xmlns="http://www.w3.org/2000/svg">
<path d="M12 14C12.8284 14 13.5 13.3284 13.5 12.5C13.5 11.6716 12.8284 11 12 11C11.1716 11 10.5 11.6716 10.5 12.5C10.5 13.3284 11.1716 14 12 14Z" fill="#050810"/>
<path d="M19 14C19.8284 14 20.5 13.3284 20.5 12.5C20.5 11.6716 19.8284 11 19 11C18.1716 11 17.5 11.6716 17.5 12.5C17.5 13.3284 18.1716 14 19 14Z" fill="#050810"/>
<path d="M5 14C5.82843 14 6.5 13.3284 6.5 12.5C6.5 11.6716 5.82843 11 5 11C4.17157 11 3.5 11.6716 3.5 12.5C3.5 13.3284 4.17157 14 5 14Z" fill="#050810"/>
</svg>


