<svg width="32" height="32" viewBox="0 0 32 32" fill="none" xmlns="http://www.w3.org/2000/svg">
<path d="M25.3333 4H6.66667C5.19391 4 4 5.19391 4 6.66667V25.3333C4 26.8061 5.19391 28 6.66667 28H25.3333C26.8061 28 28 26.8061 28 25.3333V6.66667C28 5.19391 26.8061 4 25.3333 4Z" stroke="#050810" stroke-width="2" stroke-linecap="round" stroke-linejoin="round"/>
<path d="M11.9997 14.6668C13.4724 14.6668 14.6663 13.4729 14.6663 12.0002C14.6663 10.5274 13.4724 9.3335 11.9997 9.3335C10.5269 9.3335 9.33301 10.5274 9.33301 12.0002C9.33301 13.4729 10.5269 14.6668 11.9997 14.6668Z" stroke="#050810" stroke-width="2" stroke-linecap="round" stroke-linejoin="round"/>
<path d="M28 19.9994L23.8853 15.8848C23.3853 15.3848 22.7071 15.104 22 15.104C21.2929 15.104 20.6147 15.3848 20.1147 15.8848L8 27.9994" stroke="#050810" stroke-width="2" stroke-linecap="round" stroke-linejoin="round"/>
</svg>
