<svg width="24" height="24" viewBox="0 0 24 24" fill="none" xmlns="http://www.w3.org/2000/svg">
<path d="M10.2676 21C10.4431 21.304 10.6956 21.5565 10.9996 21.732C11.3037 21.9075 11.6485 21.9999 11.9996 21.9999C12.3506 21.9999 12.6955 21.9075 12.9995 21.732C13.3036 21.5565 13.556 21.304 13.7316 21" stroke="#050810" stroke-width="1.5" stroke-linecap="round" stroke-linejoin="round"/>
<path d="M3.26225 15.326C3.13161 15.4692 3.0454 15.6472 3.0141 15.8385C2.9828 16.0298 3.00777 16.226 3.08595 16.4034C3.16414 16.5807 3.29218 16.7316 3.4545 16.8375C3.61682 16.9434 3.80642 16.9999 4.00025 17H20.0002C20.194 17.0001 20.3837 16.9438 20.5461 16.8381C20.7085 16.7324 20.8367 16.5817 20.9151 16.4045C20.9935 16.2273 21.0187 16.0311 20.9877 15.8398C20.9566 15.6485 20.8707 15.4703 20.7402 15.327C19.4102 13.956 18.0002 12.499 18.0002 8C18.0002 6.4087 17.3681 4.88258 16.2429 3.75736C15.1177 2.63214 13.5915 2 12.0002 2C10.4089 2 8.88282 2.63214 7.75761 3.75736C6.63239 4.88258 6.00025 6.4087 6.00025 8C6.00025 12.499 4.58925 13.956 3.26225 15.326Z" stroke="#050810" stroke-width="1.5" stroke-linecap="round" stroke-linejoin="round"/>
</svg>


